<svg xmlns="http://www.w3.org/2000/svg" viewBox="0 0 512 512" role="img" aria-label="Readability and Token Efficiency Analyzer">
	<defs>
		<linearGradient id="bg" x1="0" y1="0" x2="1" y2="1">
			<stop offset="0%" stop-color="#4f46e5" />
			<stop offset="100%" stop-color="#7c3aed" />
		</linearGradient>
		<linearGradient id="bars" x1="0" y1="1" x2="0" y2="0">
			<stop offset="0%" stop-color="#ffffff" stop-opacity="0.55" />
			<stop offset="100%" stop-color="#ffffff" stop-opacity="1" />
		</linearGradient>
	</defs>
	<rect width="512" height="512" rx="96" fill="url(#bg)" />
	<g transform="translate(112 112)">
		<rect x="0" y="0" width="180" height="240" rx="20" fill="#ffffff" />
		<rect x="0" y="0" width="180" height="48" rx="20" fill="#eef2ff" />
		<rect x="0" y="32" width="180" height="16" fill="#eef2ff" />
		<rect x="22" y="20" width="40" height="8" rx="4" fill="#4f46e5" />
		<rect x="22" y="80" width="136" height="10" rx="5" fill="#c7d2fe" />
		<rect x="22" y="104" width="100" height="10" rx="5" fill="#c7d2fe" />
		<rect x="22" y="128" width="120" height="10" rx="5" fill="#c7d2fe" />
		<rect x="22" y="152" width="84" height="10" rx="5" fill="#c7d2fe" />
		<rect x="22" y="176" width="110" height="10" rx="5" fill="#c7d2fe" />
		<rect x="22" y="200" width="64" height="10" rx="5" fill="#c7d2fe" />
		<g transform="translate(216 0)">
			<rect x="0" y="160" width="28" height="80" rx="6" fill="url(#bars)" />
			<rect x="40" y="120" width="28" height="120" rx="6" fill="url(#bars)" />
			<rect x="80" y="80" width="28" height="160" rx="6" fill="url(#bars)" />
			<rect x="120" y="40" width="28" height="200" rx="6" fill="url(#bars)" />
		</g>
	</g>
</svg>
